<svg version="1.1" id="Layer_1" xmlns="http://www.w3.org/2000/svg" xmlns:xlink="http://www.w3.org/1999/xlink" x="0px" y="0px"
	 width="100%" viewBox="0 0 1024 1024" enable-background="new 0 0 1024 1024" xml:space="preserve">
<path fill="#000000" opacity="1.000000" stroke="none" 
	d="
M753.383667,430.615570 
	C768.845886,445.818298 784.199280,460.630951 799.226196,475.767670 
	C821.695374,498.400940 821.882629,528.578308 799.399719,551.422668 
	C772.512390,578.742249 745.211914,605.655212 718.108154,632.762085 
	C611.461365,739.420837 504.808075,846.073120 398.210449,952.781006 
	C391.295898,959.702698 383.993439,965.778564 374.541412,968.970215 
	C345.737427,978.696167 313.506439,959.812256 307.596436,929.989502 
	C303.888000,911.276245 308.771698,895.648743 322.228699,882.200928 
	C442.468353,762.043701 562.632690,641.811035 682.817566,521.598938 
	C685.377319,519.038635 687.917297,516.458618 689.620483,514.741089 
	C677.011780,501.628815 664.779480,488.476624 652.090942,475.780487 
	C543.116577,366.740723 434.087860,257.755188 324.983093,148.845963 
	C314.318054,138.200027 307.134766,126.040909 306.120605,110.848389 
	C305.013092,94.257324 313.735931,74.173904 332.027832,63.835392 
	C353.703827,51.584217 377.994598,55.245659 395.688599,72.943497 
	C514.820312,192.100845 633.978882,311.231354 753.383667,430.615570 
z"/>
</svg>