<?xml version="1.0" encoding="UTF-8"?>
<!DOCTYPE svg PUBLIC "-//W3C//DTD SVG 1.1//EN" "http://www.w3.org/Graphics/SVG/1.1/DTD/svg11.dtd">
<svg xmlns="http://www.w3.org/2000/svg" version="1.1" width="500px" height="500px" style="shape-rendering:geometricPrecision; text-rendering:geometricPrecision; image-rendering:optimizeQuality; fill-rule:evenodd; clip-rule:evenodd" xmlns:xlink="http://www.w3.org/1999/xlink">
<g><path style="opacity:0.902" fill="#85a9c2" d="M 184.5,28.5 C 178.516,27.9258 172.516,27.5925 166.5,27.5C 172.61,24.8436 178.61,25.177 184.5,28.5 Z"/></g>
<g><path style="opacity:1" fill="#035a91" d="M 166.5,27.5 C 172.516,27.5925 178.516,27.9258 184.5,28.5C 184.971,29.9008 185.638,31.2342 186.5,32.5C 196.557,42.0579 206.39,51.7246 216,61.5C 216.986,60.8288 218.153,60.8288 219.5,61.5C 219.833,63.8333 221.167,65.1667 223.5,65.5C 223.525,68.179 224.858,69.5123 227.5,69.5C 227.343,70.8734 227.51,72.2068 228,73.5C 234.228,80.3945 240.728,86.8945 247.5,93C 249.154,93.6077 250.821,94.1077 252.5,94.5C 252.215,96.288 252.548,97.9547 253.5,99.5C 257.527,102.86 261.194,106.527 264.5,110.5C 266.509,111.065 268.176,112.065 269.5,113.5C 270.605,114.6 271.938,115.267 273.5,115.5C 273.343,116.873 273.51,118.207 274,119.5C 274.333,119.167 274.667,118.833 275,118.5C 281.655,128.322 289.822,136.655 299.5,143.5C 300.781,146.447 302.781,148.781 305.5,150.5C 306.309,152.071 306.643,153.738 306.5,155.5C 311.304,155.963 314.304,158.629 315.5,163.5C 319.632,166.234 323.632,168.234 327.5,169.5C 327.338,171.527 327.505,173.527 328,175.5C 336.351,182.023 344.185,189.023 351.5,196.5C 352.93,197.537 354.597,198.204 356.5,198.5C 357.167,201.167 358.833,202.833 361.5,203.5C 362.5,203.833 363.167,204.5 363.5,205.5C 363.833,207.833 365.167,209.167 367.5,209.5C 367.423,210.75 366.756,211.583 365.5,212C 369.826,215.326 373.826,218.993 377.5,223C 379.154,223.608 380.821,224.108 382.5,224.5C 382.833,226.833 384.167,228.167 386.5,228.5C 387.833,229.167 388.833,230.167 389.5,231.5C 390.08,233.749 391.413,235.415 393.5,236.5C 393.427,238.027 394.094,239.027 395.5,239.5C 395.5,240.167 395.5,240.833 395.5,241.5C 395.827,246.544 395.494,251.544 394.5,256.5C 393.833,257.5 393.167,258.5 392.5,259.5C 391.232,258.572 389.899,258.405 388.5,259C 390.291,261.106 390.958,263.606 390.5,266.5C 388.61,266.703 387.11,266.037 386,264.5C 384.921,267.063 384.421,269.729 384.5,272.5C 382.856,272.714 381.356,272.38 380,271.5C 378.632,272.993 378.465,274.493 379.5,276C 377.512,276.18 375.512,276.014 373.5,275.5C 373.297,277.39 373.963,278.89 375.5,280C 373.866,280.494 372.199,280.66 370.5,280.5C 370.785,282.288 370.452,283.955 369.5,285.5C 366.485,283.12 365.818,283.953 367.5,288C 365.874,287.805 364.207,287.805 362.5,288C 365.038,290.359 364.371,291.859 360.5,292.5C 361.127,293.417 361.461,294.417 361.5,295.5C 360.833,296.833 359.833,297.833 358.5,298.5C 355.956,298.104 353.789,298.771 352,300.5C 351.667,300.167 351.333,299.833 351,299.5C 350.647,300.672 350.813,301.838 351.5,303C 350.205,303.702 348.872,304.369 347.5,305C 348.337,306.011 348.67,307.178 348.5,308.5C 346.409,308.682 344.409,308.348 342.5,307.5C 341.269,308.651 341.269,309.817 342.5,311C 340.319,312.348 338.652,314.182 337.5,316.5C 335.38,315.128 334.38,315.795 334.5,318.5C 331.402,318.413 331.068,318.913 333.5,320C 331.808,321.401 331.141,323.234 331.5,325.5C 330.167,327.5 328.5,329.167 326.5,330.5C 325.07,330.579 323.736,330.246 322.5,329.5C 321.396,330.631 321.729,331.465 323.5,332C 322.552,332.483 321.552,332.649 320.5,332.5C 320.5,333.833 320.5,335.167 320.5,336.5C 317.729,336.421 315.063,336.921 312.5,338C 313.38,339.356 313.714,340.856 313.5,342.5C 311.5,342.167 309.5,341.833 307.5,341.5C 307.33,342.822 307.663,343.989 308.5,345C 307.256,345.456 306.423,344.956 306,343.5C 303.772,344.892 302.606,346.892 302.5,349.5C 304.179,349.285 305.179,349.952 305.5,351.5C 303.738,351.643 302.071,351.309 300.5,350.5C 298.946,352.933 298.28,355.6 298.5,358.5C 297.833,359.833 296.833,360.833 295.5,361.5C 293.856,361.714 292.356,361.38 291,360.5C 290.544,361.744 291.044,362.577 292.5,363C 291.062,363.219 289.729,363.719 288.5,364.5C 289.127,365.417 289.461,366.417 289.5,367.5C 287.833,367.5 286.167,367.5 284.5,367.5C 284.5,368.5 284.5,369.5 284.5,370.5C 283.5,370.5 282.5,370.5 281.5,370.5C 281.5,371.833 281.5,373.167 281.5,374.5C 279.401,373.769 277.401,373.769 275.5,374.5C 276.348,376.409 276.682,378.409 276.5,380.5C 275.167,382.5 273.5,384.167 271.5,385.5C 269.121,384.433 268.121,385.433 268.5,388.5C 266.409,388.682 264.409,388.348 262.5,387.5C 261.246,389.259 261.579,390.759 263.5,392C 261.527,392.495 259.527,392.662 257.5,392.5C 257.425,395.206 257.092,397.873 256.5,400.5C 254.071,400.884 251.737,401.551 249.5,402.5C 249.5,403.833 249.5,405.167 249.5,406.5C 247.401,405.769 245.401,405.769 243.5,406.5C 245.11,411.04 244.11,412.04 240.5,409.5C 237.873,411.084 237.873,412.751 240.5,414.5C 238.784,414.997 237.117,415.331 235.5,415.5C 234.752,417.416 234.752,419.416 235.5,421.5C 233.833,423.833 231.833,425.833 229.5,427.5C 227.396,427.201 225.396,427.534 223.5,428.5C 224.246,429.736 224.579,431.07 224.5,432.5C 221.5,436.167 218.167,439.5 214.5,442.5C 212.801,442.34 211.134,442.506 209.5,443C 211.932,444.087 211.598,444.587 208.5,444.5C 208.5,445.833 208.5,447.167 208.5,448.5C 205.159,447.843 203.159,449.176 202.5,452.5C 200.929,451.691 199.262,451.357 197.5,451.5C 197.833,453.5 198.167,455.5 198.5,457.5C 195.692,457.693 193.025,458.36 190.5,459.5C 190.5,461.5 190.5,463.5 190.5,465.5C 189.5,465.5 188.5,465.5 187.5,465.5C 187.567,466.959 187.234,468.292 186.5,469.5C 186.158,470.338 185.492,470.672 184.5,470.5C 179.833,470.833 175.167,471.167 170.5,471.5C 169.167,471.5 167.833,471.5 166.5,471.5C 165.041,471.567 163.708,471.234 162.5,470.5C 162.027,469.094 161.027,468.427 159.5,468.5C 158.421,466.457 156.754,465.124 154.5,464.5C 153.599,463.71 152.932,462.71 152.5,461.5C 152.573,459.973 151.906,458.973 150.5,458.5C 150.5,458.167 150.5,457.833 150.5,457.5C 150.34,455.847 149.674,454.514 148.5,453.5C 147.167,449.5 147.167,445.5 148.5,441.5C 149.674,440.486 150.34,439.153 150.5,437.5C 150.5,437.167 150.5,436.833 150.5,436.5C 151.906,436.027 152.573,435.027 152.5,433.5C 153.906,433.027 154.573,432.027 154.5,430.5C 155.5,430.167 156.167,429.5 156.5,428.5C 158.374,427.37 160.374,426.37 162.5,425.5C 163.429,424.311 163.762,422.978 163.5,421.5C 165.167,419.167 167.167,417.167 169.5,415.5C 173.752,414.911 176.419,412.578 177.5,408.5C 178.338,408.158 178.672,407.492 178.5,406.5C 179.5,406.167 180.167,405.5 180.5,404.5C 182.482,404.005 184.482,403.505 186.5,403C 187.744,400.449 189.077,397.616 190.5,394.5C 194.653,394.798 196.653,392.798 196.5,388.5C 197.167,387.167 198.167,386.167 199.5,385.5C 202.189,384.811 203.856,383.144 204.5,380.5C 207.584,378.082 210.918,376.082 214.5,374.5C 214.629,372.784 214.962,371.117 215.5,369.5C 216.5,367.833 217.833,366.5 219.5,365.5C 223.129,365.205 225.129,363.205 225.5,359.5C 227.833,359.167 229.167,357.833 229.5,355.5C 231.5,352.833 233.833,350.5 236.5,348.5C 238.5,347.833 239.833,346.5 240.5,344.5C 245.167,339.167 250.167,334.167 255.5,329.5C 258.144,328.856 259.811,327.189 260.5,324.5C 265.167,319.167 270.167,314.167 275.5,309.5C 277.5,309.5 278.5,308.5 278.5,306.5C 280.144,306.19 281.144,305.19 281.5,303.5C 283.144,303.19 284.144,302.19 284.5,300.5C 285.5,298.833 286.833,297.5 288.5,296.5C 291.298,294.577 294.298,292.744 297.5,291C 299.647,287.861 301.647,284.695 303.5,281.5C 305.19,281.144 306.19,280.144 306.5,278.5C 308.5,278.5 309.5,277.5 309.5,275.5C 311.117,274.962 312.784,274.629 314.5,274.5C 314.704,272.315 315.37,270.315 316.5,268.5C 319.5,267.5 321.5,265.5 322.5,262.5C 323.239,262.631 323.906,262.464 324.5,262C 326.742,260.23 328.408,258.063 329.5,255.5C 329.833,254.5 330.5,253.833 331.5,253.5C 333.755,252.913 335.421,251.58 336.5,249.5C 335.095,247.093 333.095,245.426 330.5,244.5C 329.5,244.167 328.833,243.5 328.5,242.5C 328.611,241.883 328.944,241.383 329.5,241C 326.175,239.386 325.842,237.386 328.5,235C 326.786,229.784 323.452,225.951 318.5,223.5C 317.304,223.846 317.304,224.346 318.5,225C 317.737,225.944 316.737,226.444 315.5,226.5C 313.711,225.037 311.711,224.037 309.5,223.5C 309.167,221.167 307.833,219.833 305.5,219.5C 304.5,219.167 303.833,218.5 303.5,217.5C 302.851,214.184 300.851,212.184 297.5,211.5C 296.037,208.573 294.537,205.573 293,202.5C 290.692,201.009 288.192,200.009 285.5,199.5C 283.833,198.5 282.5,197.167 281.5,195.5C 281.167,194.5 280.5,193.833 279.5,193.5C 275.833,190.5 272.5,187.167 269.5,183.5C 267.561,176.341 263.561,170.508 257.5,166C 255.134,165.56 252.801,165.06 250.5,164.5C 248.833,163.5 247.5,162.167 246.5,160.5C 246.005,158.518 245.505,156.518 245,154.5C 242.536,153.349 240.036,152.349 237.5,151.5C 236.167,150.833 235.167,149.833 234.5,148.5C 232.513,145.322 230.68,141.989 229,138.5C 225.83,136.807 222.663,135.14 219.5,133.5C 220.962,132.199 222.296,130.699 223.5,129C 221.546,127.259 220.546,125.092 220.5,122.5C 218.181,121.833 215.847,121.666 213.5,122C 214.604,123.131 214.271,123.965 212.5,124.5C 211.443,122.997 210.776,121.33 210.5,119.5C 211.423,118.164 211.923,116.83 212,115.5C 209.99,114.152 207.99,112.818 206,111.5C 204.715,111.95 203.548,112.617 202.5,113.5C 202.167,113 201.833,112.5 201.5,112C 203.478,110.022 205.478,108.022 207.5,106C 203.667,102.833 200.167,99.3333 197,95.5C 194.791,97.3734 192.958,99.54 191.5,102C 190.552,102.483 189.552,102.649 188.5,102.5C 183.14,97.8063 178.14,92.8063 173.5,87.5C 172.962,85.8828 172.629,84.2161 172.5,82.5C 170.641,82.5391 169.308,81.7058 168.5,80C 171.128,78.3745 173.461,76.3745 175.5,74C 171.667,70.8333 168.167,67.3333 165,63.5C 162.855,66.1664 160.355,68.1664 157.5,69.5C 154.712,65.2151 152.212,60.5485 150,55.5C 149.503,51.4761 149.669,47.4761 150.5,43.5C 150.5,42.8333 150.5,42.1667 150.5,41.5C 150.5,41.1667 150.5,40.8333 150.5,40.5C 151.906,40.0269 152.573,39.0269 152.5,37.5C 153.906,37.0269 154.573,36.0269 154.5,34.5C 157.109,33.5569 159.109,31.8903 160.5,29.5C 162.214,28.2616 164.214,27.595 166.5,27.5 Z"/></g>
<g><path style="opacity:0.016" fill="#e8f5fb" d="M 186.5,29.5 C 188.027,29.427 189.027,30.0937 189.5,31.5C 187.973,31.573 186.973,30.9063 186.5,29.5 Z"/></g>
<g><path style="opacity:0.549" fill="#c4e3f1" d="M 160.5,29.5 C 159.109,31.8903 157.109,33.5569 154.5,34.5C 155.865,32.1402 157.865,30.4735 160.5,29.5 Z"/></g>
<g><path style="opacity:0.608" fill="#add5e5" d="M 189.5,31.5 C 190.833,32.1667 191.833,33.1667 192.5,34.5C 190.5,34.5 189.5,33.5 189.5,31.5 Z"/></g>
<g><path style="opacity:1" fill="#407297" d="M 184.5,28.5 C 185.492,28.3284 186.158,28.6618 186.5,29.5C 186.973,30.9063 187.973,31.573 189.5,31.5C 189.5,33.5 190.5,34.5 192.5,34.5C 193.5,34.8333 194.167,35.5 194.5,36.5C 194.833,38.8333 196.167,40.1667 198.5,40.5C 202.167,43.5 205.5,46.8333 208.5,50.5C 208.5,52.5 209.5,53.5 211.5,53.5C 214.5,55.8333 217.167,58.5 219.5,61.5C 218.153,60.8288 216.986,60.8288 216,61.5C 206.39,51.7246 196.557,42.0579 186.5,32.5C 185.638,31.2342 184.971,29.9008 184.5,28.5 Z"/></g>
<g><path style="opacity:0.498" fill="#9bbed2" d="M 154.5,34.5 C 154.573,36.0269 153.906,37.0269 152.5,37.5C 152.427,35.9731 153.094,34.9731 154.5,34.5 Z"/></g>
<g><path style="opacity:0.718" fill="#a5c4d7" d="M 194.5,36.5 C 196.167,37.5 197.5,38.8333 198.5,40.5C 196.167,40.1667 194.833,38.8333 194.5,36.5 Z"/></g>
<g><path style="opacity:0.447" fill="#b8dbe9" d="M 152.5,37.5 C 152.573,39.0269 151.906,40.0269 150.5,40.5C 150.427,38.9731 151.094,37.9731 152.5,37.5 Z"/></g>
<g><path style="opacity:0.141" fill="#b9ddeb" d="M 150.5,41.5 C 150.5,42.1667 150.5,42.8333 150.5,43.5C 149.833,44.1667 149.167,44.8333 148.5,45.5C 148.229,43.6203 148.896,42.287 150.5,41.5 Z"/></g>
<g><path style="opacity:0.714" fill="#abd0e0" d="M 208.5,50.5 C 209.833,51.1667 210.833,52.1667 211.5,53.5C 209.5,53.5 208.5,52.5 208.5,50.5 Z"/></g>
<g><path style="opacity:0.584" fill="#9ec7d7" d="M 219.5,61.5 C 221.167,62.5 222.5,63.8333 223.5,65.5C 221.167,65.1667 219.833,63.8333 219.5,61.5 Z"/></g>
<g><path style="opacity:1" fill="#276595" d="M 150.5,43.5 C 149.669,47.4761 149.503,51.4761 150,55.5C 152.212,60.5485 154.712,65.2151 157.5,69.5C 160.355,68.1664 162.855,66.1664 165,63.5C 168.167,67.3333 171.667,70.8333 175.5,74C 173.461,76.3745 171.128,78.3745 168.5,80C 169.308,81.7058 170.641,82.5391 172.5,82.5C 172.629,84.2161 172.962,85.8828 173.5,87.5C 170.5,85.1667 167.833,82.5 165.5,79.5C 165.798,75.347 163.798,73.347 159.5,73.5C 158.167,72.8333 157.167,71.8333 156.5,70.5C 156.167,69.5 155.5,68.8333 154.5,68.5C 148.465,62.0261 146.465,54.3594 148.5,45.5C 149.167,44.8333 149.833,44.1667 150.5,43.5 Z"/></g>
<g><path style="opacity:0.996" fill="#6895ae" d="M 223.5,65.5 C 225.167,66.5 226.5,67.8333 227.5,69.5C 224.858,69.5123 223.525,68.179 223.5,65.5 Z"/></g>
<g><path style="opacity:0.02" fill="#e2f1fe" d="M 154.5,68.5 C 155.5,68.8333 156.167,69.5 156.5,70.5C 155.167,70.5 154.5,69.8333 154.5,68.5 Z"/></g>
<g><path style="opacity:1" fill="#497c9e" d="M 159.5,73.5 C 163.798,73.347 165.798,75.347 165.5,79.5C 163.167,77.8333 161.167,75.8333 159.5,73.5 Z"/></g>
<g><path style="opacity:0.639" fill="#b1d2e1" d="M 233.5,75.5 C 234.833,76.1667 235.833,77.1667 236.5,78.5C 234.5,78.5 233.5,77.5 233.5,75.5 Z"/></g>
<g><path style="opacity:0.624" fill="#a2c7d6" d="M 238.5,80.5 C 240.167,81.5 241.5,82.8333 242.5,84.5C 240.167,84.1667 238.833,82.8333 238.5,80.5 Z"/></g>
<g><path style="opacity:1" fill="#356c91" d="M 227.5,69.5 C 229.833,71.1667 231.833,73.1667 233.5,75.5C 233.5,77.5 234.5,78.5 236.5,78.5C 237.5,78.8333 238.167,79.5 238.5,80.5C 238.833,82.8333 240.167,84.1667 242.5,84.5C 243.5,84.8333 244.167,85.5 244.5,86.5C 244.833,88.8333 246.167,90.1667 248.5,90.5C 250.167,91.5 251.5,92.8333 252.5,94.5C 250.821,94.1077 249.154,93.6077 247.5,93C 240.728,86.8945 234.228,80.3945 228,73.5C 227.51,72.2068 227.343,70.8734 227.5,69.5 Z"/></g>
<g><path style="opacity:0.655" fill="#a6c6d4" d="M 244.5,86.5 C 246.167,87.5 247.5,88.8333 248.5,90.5C 246.167,90.1667 244.833,88.8333 244.5,86.5 Z"/></g>
<g><path style="opacity:1" fill="#1c6091" d="M 219.5,133.5 C 208.833,123.5 198.5,113.167 188.5,102.5C 189.552,102.649 190.552,102.483 191.5,102C 192.958,99.54 194.791,97.3734 197,95.5C 200.167,99.3333 203.667,102.833 207.5,106C 205.478,108.022 203.478,110.022 201.5,112C 201.833,112.5 202.167,113 202.5,113.5C 203.548,112.617 204.715,111.95 206,111.5C 207.99,112.818 209.99,114.152 212,115.5C 211.923,116.83 211.423,118.164 210.5,119.5C 210.776,121.33 211.443,122.997 212.5,124.5C 214.271,123.965 214.604,123.131 213.5,122C 215.847,121.666 218.181,121.833 220.5,122.5C 220.546,125.092 221.546,127.259 223.5,129C 222.296,130.699 220.962,132.199 219.5,133.5 Z"/></g>
<g><path style="opacity:1" fill="#356c92" d="M 252.5,94.5 C 254.833,96.1667 256.833,98.1667 258.5,100.5C 258.5,102.5 259.5,103.5 261.5,103.5C 262.5,103.833 263.167,104.5 263.5,105.5C 263.833,107.833 265.167,109.167 267.5,109.5C 268.5,109.833 269.167,110.5 269.5,111.5C 269.5,112.167 269.5,112.833 269.5,113.5C 268.176,112.065 266.509,111.065 264.5,110.5C 261.194,106.527 257.527,102.86 253.5,99.5C 252.548,97.9547 252.215,96.288 252.5,94.5 Z"/></g>
<g><path style="opacity:0.647" fill="#b3d1e3" d="M 258.5,100.5 C 259.833,101.167 260.833,102.167 261.5,103.5C 259.5,103.5 258.5,102.5 258.5,100.5 Z"/></g>
<g><path style="opacity:0.714" fill="#abc7da" d="M 263.5,105.5 C 265.167,106.5 266.5,107.833 267.5,109.5C 265.167,109.167 263.833,107.833 263.5,105.5 Z"/></g>
<g><path style="opacity:0.651" fill="#a4cbdc" d="M 269.5,111.5 C 271.167,112.5 272.5,113.833 273.5,115.5C 271.938,115.267 270.605,114.6 269.5,113.5C 269.5,112.833 269.5,112.167 269.5,111.5 Z"/></g>
<g><path style="opacity:0.635" fill="#afd2e2" d="M 283.5,125.5 C 284.833,126.167 285.833,127.167 286.5,128.5C 284.5,128.5 283.5,127.5 283.5,125.5 Z"/></g>
<g><path style="opacity:1" fill="#376d94" d="M 273.5,115.5 C 277.167,118.5 280.5,121.833 283.5,125.5C 283.5,127.5 284.5,128.5 286.5,128.5C 287.833,129.167 288.833,130.167 289.5,131.5C 289.5,133.5 290.5,134.5 292.5,134.5C 293.5,134.833 294.167,135.5 294.5,136.5C 294.833,138.833 296.167,140.167 298.5,140.5C 303.833,145.167 308.833,150.167 313.5,155.5C 313.833,157.833 315.167,159.167 317.5,159.5C 318.5,159.833 319.167,160.5 319.5,161.5C 319.833,163.833 321.167,165.167 323.5,165.5C 325.167,166.5 326.5,167.833 327.5,169.5C 323.632,168.234 319.632,166.234 315.5,163.5C 314.304,158.629 311.304,155.963 306.5,155.5C 306.643,153.738 306.309,152.071 305.5,150.5C 302.781,148.781 300.781,146.447 299.5,143.5C 289.822,136.655 281.655,128.322 275,118.5C 274.667,118.833 274.333,119.167 274,119.5C 273.51,118.207 273.343,116.873 273.5,115.5 Z"/></g>
<g><path style="opacity:0.635" fill="#b5d4e6" d="M 289.5,131.5 C 290.833,132.167 291.833,133.167 292.5,134.5C 290.5,134.5 289.5,133.5 289.5,131.5 Z"/></g>
<g><path style="opacity:0.761" fill="#a8c8d9" d="M 294.5,136.5 C 296.167,137.5 297.5,138.833 298.5,140.5C 296.167,140.167 294.833,138.833 294.5,136.5 Z"/></g>
<g><path style="opacity:1" fill="#46789c" d="M 219.5,133.5 C 222.663,135.14 225.83,136.807 229,138.5C 230.68,141.989 232.513,145.322 234.5,148.5C 229.167,143.833 224.167,138.833 219.5,133.5 Z"/></g>
<g><path style="opacity:1" fill="#4d7da0" d="M 237.5,151.5 C 240.036,152.349 242.536,153.349 245,154.5C 245.505,156.518 246.005,158.518 246.5,160.5C 243.118,157.785 240.118,154.785 237.5,151.5 Z"/></g>
<g><path style="opacity:0.635" fill="#a5c7d6" d="M 313.5,155.5 C 315.167,156.5 316.5,157.833 317.5,159.5C 315.167,159.167 313.833,157.833 313.5,155.5 Z"/></g>
<g><path style="opacity:0.694" fill="#a8cad9" d="M 319.5,161.5 C 321.167,162.5 322.5,163.833 323.5,165.5C 321.167,165.167 319.833,163.833 319.5,161.5 Z"/></g>
<g><path style="opacity:1" fill="#2d6894" d="M 250.5,164.5 C 252.801,165.06 255.134,165.56 257.5,166C 263.561,170.508 267.561,176.341 269.5,183.5C 262.5,177.833 256.167,171.5 250.5,164.5 Z"/></g>
<g><path style="opacity:0.702" fill="#aad5e5" d="M 333.5,175.5 C 334.833,176.167 335.833,177.167 336.5,178.5C 334.5,178.5 333.5,177.5 333.5,175.5 Z"/></g>
<g><path style="opacity:0.643" fill="#a8c7d8" d="M 338.5,180.5 C 340.167,181.5 341.5,182.833 342.5,184.5C 340.167,184.167 338.833,182.833 338.5,180.5 Z"/></g>
<g><path style="opacity:1" fill="#2a658d" d="M 327.5,169.5 C 329.833,171.167 331.833,173.167 333.5,175.5C 333.5,177.5 334.5,178.5 336.5,178.5C 337.5,178.833 338.167,179.5 338.5,180.5C 338.833,182.833 340.167,184.167 342.5,184.5C 343.833,185.167 344.833,186.167 345.5,187.5C 345.5,189.5 346.5,190.5 348.5,190.5C 349.096,192.745 350.096,194.745 351.5,196.5C 344.185,189.023 336.351,182.023 328,175.5C 327.505,173.527 327.338,171.527 327.5,169.5 Z"/></g>
<g><path style="opacity:0.627" fill="#b8d6e6" d="M 345.5,187.5 C 346.833,188.167 347.833,189.167 348.5,190.5C 346.5,190.5 345.5,189.5 345.5,187.5 Z"/></g>
<g><path style="opacity:0.02" fill="#e2f5ff" d="M 279.5,193.5 C 280.5,193.833 281.167,194.5 281.5,195.5C 280.167,195.5 279.5,194.833 279.5,193.5 Z"/></g>
<g><path style="opacity:0.988" fill="#608eaa" d="M 348.5,190.5 C 351.5,192.833 354.167,195.5 356.5,198.5C 354.597,198.204 352.93,197.537 351.5,196.5C 350.096,194.745 349.096,192.745 348.5,190.5 Z"/></g>
<g><path style="opacity:0.71" fill="#a9c4d8" d="M 356.5,198.5 C 358.5,199.833 360.167,201.5 361.5,203.5C 358.833,202.833 357.167,201.167 356.5,198.5 Z"/></g>
<g><path style="opacity:1" fill="#386e95" d="M 285.5,199.5 C 288.192,200.009 290.692,201.009 293,202.5C 294.537,205.573 296.037,208.573 297.5,211.5C 293.167,207.833 289.167,203.833 285.5,199.5 Z"/></g>
<g><path style="opacity:0.612" fill="#a2cada" d="M 363.5,205.5 C 365.167,206.5 366.5,207.833 367.5,209.5C 365.167,209.167 363.833,207.833 363.5,205.5 Z"/></g>
<g><path style="opacity:1" fill="#5382a3" d="M 367.5,209.5 C 372.833,214.167 377.833,219.167 382.5,224.5C 380.821,224.108 379.154,223.608 377.5,223C 373.826,218.993 369.826,215.326 365.5,212C 366.756,211.583 367.423,210.75 367.5,209.5 Z"/></g>
<g><path style="opacity:1" fill="#7098b4" d="M 297.5,211.5 C 300.851,212.184 302.851,214.184 303.5,217.5C 301.061,215.973 299.061,213.973 297.5,211.5 Z"/></g>
<g><path style="opacity:0.769" fill="#87b1c8" d="M 305.5,219.5 C 307.833,219.833 309.167,221.167 309.5,223.5C 307.833,222.5 306.5,221.167 305.5,219.5 Z"/></g>
<g><path style="opacity:1" fill="#276595" d="M 309.5,223.5 C 311.711,224.037 313.711,225.037 315.5,226.5C 316.737,226.444 317.737,225.944 318.5,225C 317.304,224.346 317.304,223.846 318.5,223.5C 323.452,225.951 326.786,229.784 328.5,235C 325.842,237.386 326.175,239.386 329.5,241C 328.944,241.383 328.611,241.883 328.5,242.5C 321.833,236.5 315.5,230.167 309.5,223.5 Z"/></g>
<g><path style="opacity:0.627" fill="#a3cbdc" d="M 382.5,224.5 C 384.167,225.5 385.5,226.833 386.5,228.5C 384.167,228.167 382.833,226.833 382.5,224.5 Z"/></g>
<g><path style="opacity:0.686" fill="#acc8d8" d="M 389.5,231.5 C 391.587,232.585 392.92,234.251 393.5,236.5C 391.413,235.415 390.08,233.749 389.5,231.5 Z"/></g>
<g><path style="opacity:0.094" fill="#d5f0f6" d="M 393.5,236.5 C 394.906,236.973 395.573,237.973 395.5,239.5C 394.094,239.027 393.427,238.027 393.5,236.5 Z"/></g>
<g><path style="opacity:0.816" fill="#6492b3" d="M 330.5,244.5 C 333.095,245.426 335.095,247.093 336.5,249.5C 335.421,251.58 333.755,252.913 331.5,253.5C 332.476,252.185 333.476,250.852 334.5,249.5C 333.143,247.814 331.81,246.148 330.5,244.5 Z"/></g>
<g><path style="opacity:0.737" fill="#8fb3c9" d="M 329.5,255.5 C 328.408,258.063 326.742,260.23 324.5,262C 323.906,262.464 323.239,262.631 322.5,262.5C 324.167,259.5 326.5,257.167 329.5,255.5 Z"/></g>
<g><path style="opacity:1" fill="#678fac" d="M 395.5,241.5 C 396.117,241.611 396.617,241.944 397,242.5C 398.441,249.773 397.275,256.439 393.5,262.5C 392.5,262.833 391.833,263.5 391.5,264.5C 391.672,265.492 391.338,266.158 390.5,266.5C 390.958,263.606 390.291,261.106 388.5,259C 389.899,258.405 391.232,258.572 392.5,259.5C 393.167,258.5 393.833,257.5 394.5,256.5C 395.494,251.544 395.827,246.544 395.5,241.5 Z"/></g>
<g><path style="opacity:0.012" fill="#d8e7f0" d="M 393.5,262.5 C 393.5,263.833 392.833,264.5 391.5,264.5C 391.833,263.5 392.5,262.833 393.5,262.5 Z"/></g>
<g><path style="opacity:0.796" fill="#739cb6" d="M 322.5,262.5 C 321.5,265.5 319.5,267.5 316.5,268.5C 318.167,266.167 320.167,264.167 322.5,262.5 Z"/></g>
<g><path style="opacity:1" fill="#5580a8" d="M 390.5,266.5 C 388.833,268.833 386.833,270.833 384.5,272.5C 384.421,269.729 384.921,267.063 386,264.5C 387.11,266.037 388.61,266.703 390.5,266.5 Z"/></g>
<g><path style="opacity:1" fill="#5180a3" d="M 316.5,268.5 C 315.37,270.315 314.704,272.315 314.5,274.5C 312.784,274.629 311.117,274.962 309.5,275.5C 311.5,272.833 313.833,270.5 316.5,268.5 Z"/></g>
<g><path style="opacity:0.8" fill="#94bad2" d="M 309.5,275.5 C 309.5,277.5 308.5,278.5 306.5,278.5C 307.167,277.167 308.167,276.167 309.5,275.5 Z"/></g>
<g><path style="opacity:0.792" fill="#94b7cc" d="M 306.5,278.5 C 306.19,280.144 305.19,281.144 303.5,281.5C 303.81,279.856 304.81,278.856 306.5,278.5 Z"/></g>
<g><path style="opacity:1" fill="#507ea5" d="M 384.5,272.5 C 377.167,280.5 369.5,288.167 361.5,295.5C 361.461,294.417 361.127,293.417 360.5,292.5C 364.371,291.859 365.038,290.359 362.5,288C 364.207,287.805 365.874,287.805 367.5,288C 365.818,283.953 366.485,283.12 369.5,285.5C 370.452,283.955 370.785,282.288 370.5,280.5C 372.199,280.66 373.866,280.494 375.5,280C 373.963,278.89 373.297,277.39 373.5,275.5C 375.512,276.014 377.512,276.18 379.5,276C 378.465,274.493 378.632,272.993 380,271.5C 381.356,272.38 382.856,272.714 384.5,272.5 Z"/></g>
<g><path style="opacity:1" fill="#4e7ca0" d="M 303.5,281.5 C 301.647,284.695 299.647,287.861 297.5,291C 294.298,292.744 291.298,294.577 288.5,296.5C 293.194,291.14 298.194,286.14 303.5,281.5 Z"/></g>
<g><path style="opacity:1" fill="#5280a7" d="M 358.5,298.5 C 355.5,302.167 352.167,305.5 348.5,308.5C 348.67,307.178 348.337,306.011 347.5,305C 348.872,304.369 350.205,303.702 351.5,303C 350.813,301.838 350.647,300.672 351,299.5C 351.333,299.833 351.667,300.167 352,300.5C 353.789,298.771 355.956,298.104 358.5,298.5 Z"/></g>
<g><path style="opacity:0.718" fill="#abcddd" d="M 284.5,300.5 C 284.144,302.19 283.144,303.19 281.5,303.5C 281.856,301.81 282.856,300.81 284.5,300.5 Z"/></g>
<g><path style="opacity:0.792" fill="#9abdd1" d="M 281.5,303.5 C 281.144,305.19 280.144,306.19 278.5,306.5C 278.856,304.81 279.856,303.81 281.5,303.5 Z"/></g>
<g><path style="opacity:0.71" fill="#94b9cf" d="M 278.5,306.5 C 278.5,308.5 277.5,309.5 275.5,309.5C 276.167,308.167 277.167,307.167 278.5,306.5 Z"/></g>
<g><path style="opacity:1" fill="#4b7ba2" d="M 348.5,308.5 C 343.167,314.5 337.5,320.167 331.5,325.5C 331.141,323.234 331.808,321.401 333.5,320C 331.068,318.913 331.402,318.413 334.5,318.5C 334.38,315.795 335.38,315.128 337.5,316.5C 338.652,314.182 340.319,312.348 342.5,311C 341.269,309.817 341.269,308.651 342.5,307.5C 344.409,308.348 346.409,308.682 348.5,308.5 Z"/></g>
<g><path style="opacity:0.745" fill="#9ec2d6" d="M 260.5,324.5 C 259.811,327.189 258.144,328.856 255.5,329.5C 256.882,327.451 258.548,325.785 260.5,324.5 Z"/></g>
<g><path style="opacity:0.996" fill="#648eb0" d="M 326.5,330.5 C 324.833,332.833 322.833,334.833 320.5,336.5C 320.5,335.167 320.5,333.833 320.5,332.5C 321.552,332.649 322.552,332.483 323.5,332C 321.729,331.465 321.396,330.631 322.5,329.5C 323.736,330.246 325.07,330.579 326.5,330.5 Z"/></g>
<g><path style="opacity:1" fill="#376e9b" d="M 320.5,336.5 C 315.833,341.833 310.833,346.833 305.5,351.5C 305.179,349.952 304.179,349.285 302.5,349.5C 302.606,346.892 303.772,344.892 306,343.5C 306.423,344.956 307.256,345.456 308.5,345C 307.663,343.989 307.33,342.822 307.5,341.5C 309.5,341.833 311.5,342.167 313.5,342.5C 313.714,340.856 313.38,339.356 312.5,338C 315.063,336.921 317.729,336.421 320.5,336.5 Z"/></g>
<g><path style="opacity:0.741" fill="#94b9cf" d="M 240.5,344.5 C 239.833,346.5 238.5,347.833 236.5,348.5C 237.167,346.5 238.5,345.167 240.5,344.5 Z"/></g>
<g><path style="opacity:1" fill="#4f7da4" d="M 305.5,351.5 C 303.5,354.167 301.167,356.5 298.5,358.5C 298.28,355.6 298.946,352.933 300.5,350.5C 302.071,351.309 303.738,351.643 305.5,351.5 Z"/></g>
<g><path style="opacity:0.718" fill="#8cb1c6" d="M 229.5,355.5 C 229.167,357.833 227.833,359.167 225.5,359.5C 226.5,357.833 227.833,356.5 229.5,355.5 Z"/></g>
<g><path style="opacity:1" fill="#5984a4" d="M 225.5,359.5 C 225.129,363.205 223.129,365.205 219.5,365.5C 221.027,363.061 223.027,361.061 225.5,359.5 Z"/></g>
<g><path style="opacity:1" fill="#5e89ae" d="M 295.5,361.5 C 293.833,363.833 291.833,365.833 289.5,367.5C 289.461,366.417 289.127,365.417 288.5,364.5C 289.729,363.719 291.062,363.219 292.5,363C 291.044,362.577 290.544,361.744 291,360.5C 292.356,361.38 293.856,361.714 295.5,361.5 Z"/></g>
<g><path style="opacity:1" fill="#5481a5" d="M 215.5,369.5 C 214.962,371.117 214.629,372.784 214.5,374.5C 210.918,376.082 207.584,378.082 204.5,380.5C 207.833,376.5 211.5,372.833 215.5,369.5 Z"/></g>
<g><path style="opacity:1" fill="#4d7da3" d="M 289.5,367.5 C 285.5,372.167 281.167,376.5 276.5,380.5C 276.682,378.409 276.348,376.409 275.5,374.5C 277.401,373.769 279.401,373.769 281.5,374.5C 281.5,373.167 281.5,371.833 281.5,370.5C 282.5,370.5 283.5,370.5 284.5,370.5C 284.5,369.5 284.5,368.5 284.5,367.5C 286.167,367.5 287.833,367.5 289.5,367.5 Z"/></g>
<g><path style="opacity:0.729" fill="#9cc1d5" d="M 204.5,380.5 C 203.856,383.144 202.189,384.811 199.5,385.5C 200.785,383.548 202.451,381.882 204.5,380.5 Z"/></g>
<g><path style="opacity:0.98" fill="#628cae" d="M 271.5,385.5 C 270.833,386.833 269.833,387.833 268.5,388.5C 268.121,385.433 269.121,384.433 271.5,385.5 Z"/></g>
<g><path style="opacity:1" fill="#4e7ea4" d="M 268.5,388.5 C 264.833,392.833 260.833,396.833 256.5,400.5C 257.092,397.873 257.425,395.206 257.5,392.5C 259.527,392.662 261.527,392.495 263.5,392C 261.579,390.759 261.246,389.259 262.5,387.5C 264.409,388.348 266.409,388.682 268.5,388.5 Z"/></g>
<g><path style="opacity:1" fill="#4b7aa0" d="M 196.5,388.5 C 196.653,392.798 194.653,394.798 190.5,394.5C 192.167,392.167 194.167,390.167 196.5,388.5 Z"/></g>
<g><path style="opacity:1" fill="#45769e" d="M 190.5,394.5 C 189.077,397.616 187.744,400.449 186.5,403C 184.482,403.505 182.482,404.005 180.5,404.5C 183.5,400.833 186.833,397.5 190.5,394.5 Z"/></g>
<g><path style="opacity:0.208" fill="#e1f6ff" d="M 180.5,404.5 C 180.167,405.5 179.5,406.167 178.5,406.5C 178.5,405.167 179.167,404.5 180.5,404.5 Z"/></g>
<g><path style="opacity:0.706" fill="#b0d3e1" d="M 178.5,406.5 C 178.672,407.492 178.338,408.158 177.5,408.5C 176.833,408.833 176.167,409.167 175.5,409.5C 175.81,407.856 176.81,406.856 178.5,406.5 Z"/></g>
<g><path style="opacity:0.988" fill="#4c7b9e" d="M 177.5,408.5 C 176.419,412.578 173.752,414.911 169.5,415.5C 171.167,413.167 173.167,411.167 175.5,409.5C 176.167,409.167 176.833,408.833 177.5,408.5 Z"/></g>
<g><path style="opacity:1" fill="#487aa2" d="M 256.5,400.5 C 249.833,407.833 242.833,414.833 235.5,421.5C 234.752,419.416 234.752,417.416 235.5,415.5C 237.117,415.331 238.784,414.997 240.5,414.5C 237.873,412.751 237.873,411.084 240.5,409.5C 244.11,412.04 245.11,411.04 243.5,406.5C 245.401,405.769 247.401,405.769 249.5,406.5C 249.5,405.167 249.5,403.833 249.5,402.5C 251.737,401.551 254.071,400.884 256.5,400.5 Z"/></g>
<g><path style="opacity:1" fill="#5e8aac" d="M 163.5,421.5 C 163.762,422.978 163.429,424.311 162.5,425.5C 160.374,426.37 158.374,427.37 156.5,428.5C 158.473,425.861 160.806,423.527 163.5,421.5 Z"/></g>
<g><path style="opacity:1" fill="#5b88ad" d="M 229.5,427.5 C 228.167,429.5 226.5,431.167 224.5,432.5C 224.579,431.07 224.246,429.736 223.5,428.5C 225.396,427.534 227.396,427.201 229.5,427.5 Z"/></g>
<g><path style="opacity:0.192" fill="#ddf6ff" d="M 156.5,428.5 C 156.167,429.5 155.5,430.167 154.5,430.5C 154.5,429.167 155.167,428.5 156.5,428.5 Z"/></g>
<g><path style="opacity:0.502" fill="#a0d0e8" d="M 154.5,430.5 C 154.573,432.027 153.906,433.027 152.5,433.5C 152.427,431.973 153.094,430.973 154.5,430.5 Z"/></g>
<g><path style="opacity:0.416" fill="#bbdae8" d="M 152.5,433.5 C 152.573,435.027 151.906,436.027 150.5,436.5C 150.427,434.973 151.094,433.973 152.5,433.5 Z"/></g>
<g><path style="opacity:0.118" fill="#cde8f3" d="M 150.5,437.5 C 150.34,439.153 149.674,440.486 148.5,441.5C 148.229,439.62 148.896,438.287 150.5,437.5 Z"/></g>
<g><path style="opacity:1" fill="#6891b3" d="M 214.5,442.5 C 212.833,444.833 210.833,446.833 208.5,448.5C 208.5,447.167 208.5,445.833 208.5,444.5C 211.598,444.587 211.932,444.087 209.5,443C 211.134,442.506 212.801,442.34 214.5,442.5 Z"/></g>
<g><path style="opacity:0.114" fill="#cee5f5" d="M 148.5,453.5 C 149.674,454.514 150.34,455.847 150.5,457.5C 148.896,456.713 148.229,455.38 148.5,453.5 Z"/></g>
<g><path style="opacity:0.039" fill="#dbf3fb" d="M 150.5,458.5 C 151.906,458.973 152.573,459.973 152.5,461.5C 151.094,461.027 150.427,460.027 150.5,458.5 Z"/></g>
<g><path style="opacity:1" fill="#517fa5" d="M 208.5,448.5 C 201.778,456.224 194.445,463.224 186.5,469.5C 187.234,468.292 187.567,466.959 187.5,465.5C 188.5,465.5 189.5,465.5 190.5,465.5C 190.5,463.5 190.5,461.5 190.5,459.5C 193.025,458.36 195.692,457.693 198.5,457.5C 198.167,455.5 197.833,453.5 197.5,451.5C 199.262,451.357 200.929,451.691 202.5,452.5C 203.159,449.176 205.159,447.843 208.5,448.5 Z"/></g>
<g><path style="opacity:0.063" fill="#cdedf8" d="M 154.5,464.5 C 156.754,465.124 158.421,466.457 159.5,468.5C 157.205,467.864 155.539,466.531 154.5,464.5 Z"/></g>
<g><path style="opacity:0.267" fill="#b0cfe1" d="M 159.5,468.5 C 161.027,468.427 162.027,469.094 162.5,470.5C 160.973,470.573 159.973,469.906 159.5,468.5 Z"/></g>
<g><path style="opacity:0.998" fill="#608dac" d="M 184.5,470.5 C 182.401,471.612 180.067,472.279 177.5,472.5C 174.941,472.802 172.607,472.468 170.5,471.5C 175.167,471.167 179.833,470.833 184.5,470.5 Z"/></g>
<g><path style="opacity:0.22" fill="#d4eef3" d="M 166.5,471.5 C 167.833,471.5 169.167,471.5 170.5,471.5C 172.607,472.468 174.941,472.802 177.5,472.5C 173.71,473.902 170.044,473.569 166.5,471.5 Z"/></g>
</svg>
